<svg xmlns="http://www.w3.org/2000/svg" viewBox="0 0 1300 89" width="1300" height="89"><filter width="155.5%" height="156.6%" x="-35.2%" y="-39.6%" filterUnits="objectBoundingBox" id="d"><feOffset result="shadowOffsetOuter1" dy="-3" dx="-2" in="SourceAlpha"/><feGaussianBlur result="shadowBlurOuter1" stdDeviation="2" in="shadowOffsetOuter1"/><feComposite in2="SourceAlpha" result="shadowBlurOuter1" operator="out" in="shadowBlurOuter1"/><feColorMatrix values="0 0 0 0 0 0 0 0 0 0 0 0 0 0 0 0 0 0 0.191887455 0" in="shadowBlurOuter1"/></filter><filter width="125.4%" height="125%" x="-16.1%" y="-17.5%" filterUnits="objectBoundingBox" id="c"><feOffset result="shadowOffsetOuter1" dy="-3" dx="-2" in="SourceAlpha"/><feGaussianBlur result="shadowBlurOuter1" stdDeviation="2" in="shadowOffsetOuter1"/><feComposite in2="SourceAlpha" result="shadowBlurOuter1" operator="out" in="shadowBlurOuter1"/><feColorMatrix values="0 0 0 0 0 0 0 0 0 0 0 0 0 0 0 0 0 0 0.191887455 0" in="shadowBlurOuter1"/></filter><filter width="125.4%" height="125%" x="-16.1%" y="-17.5%" filterUnits="objectBoundingBox" id="b"><feOffset result="shadowOffsetOuter1" dy="-3" dx="-2" in="SourceAlpha"/><feGaussianBlur result="shadowBlurOuter1" stdDeviation="2" in="shadowOffsetOuter1"/><feComposite in2="SourceAlpha" result="shadowBlurOuter1" operator="out" in="shadowBlurOuter1"/><feColorMatrix values="0 0 0 0 0 0 0 0 0 0 0 0 0 0 0 0 0 0 0.191887455 0" in="shadowBlurOuter1"/></filter><filter width="132.6%" height="132%" x="-20.6%" y="-22.4%" filterUnits="objectBoundingBox" id="o"><feOffset result="shadowOffsetOuter1" dy="-3" dx="-2" in="SourceAlpha"/><feGaussianBlur result="shadowBlurOuter1" stdDeviation="2" in="shadowOffsetOuter1"/><feComposite in2="SourceAlpha" result="shadowBlurOuter1" operator="out" in="shadowBlurOuter1"/><feColorMatrix values="0 0 0 0 0 0 0 0 0 0 0 0 0 0 0 0 0 0 0.191887455 0" in="shadowBlurOuter1"/></filter><filter width="125.4%" height="125%" x="-16.1%" y="-17.5%" filterUnits="objectBoundingBox" id="n"><feOffset result="shadowOffsetOuter1" dy="-3" dx="-2" in="SourceAlpha"/><feGaussianBlur result="shadowBlurOuter1" stdDeviation="2" in="shadowOffsetOuter1"/><feComposite in2="SourceAlpha" result="shadowBlurOuter1" operator="out" in="shadowBlurOuter1"/><feColorMatrix values="0 0 0 0 0 0 0 0 0 0 0 0 0 0 0 0 0 0 0.191887455 0" in="shadowBlurOuter1"/></filter><filter width="170%" height="171.1%" x="-44.3%" y="-49.8%" filterUnits="objectBoundingBox" id="m"><feOffset result="shadowOffsetOuter1" dy="-3" dx="-2" in="SourceAlpha"/><feGaussianBlur result="shadowBlurOuter1" stdDeviation="2" in="shadowOffsetOuter1"/><feComposite in2="SourceAlpha" result="shadowBlurOuter1" operator="out" in="shadowBlurOuter1"/><feColorMatrix values="0 0 0 0 0 0 0 0 0 0 0 0 0 0 0 0 0 0 0 0" in="shadowBlurOuter1"/></filter><filter width="149.5%" height="150.3%" x="-31.4%" y="-35.2%" filterUnits="objectBoundingBox" id="l"><feOffset result="shadowOffsetOuter1" dy="-3" dx="-2" in="SourceAlpha"/><feGaussianBlur result="shadowBlurOuter1" stdDeviation="2" in="shadowOffsetOuter1"/><feComposite in2="SourceAlpha" result="shadowBlurOuter1" operator="out" in="shadowBlurOuter1"/><feColorMatrix values="0 0 0 0 0 0 0 0 0 0 0 0 0 0 0 0 0 0 0.191887455 0" in="shadowBlurOuter1"/></filter><filter width="178.9%" height="175%" x="-50%" y="-52.5%" filterUnits="objectBoundingBox" id="k"><feOffset result="shadowOffsetOuter1" dy="-3" dx="-2" in="SourceAlpha"/><feGaussianBlur result="shadowBlurOuter1" stdDeviation="2" in="shadowOffsetOuter1"/><feComposite in2="SourceAlpha" result="shadowBlurOuter1" operator="out" in="shadowBlurOuter1"/><feColorMatrix values="0 0 0 0 0 0 0 0 0 0 0 0 0 0 0 0 0 0 0 0" in="shadowBlurOuter1"/></filter><filter width="153.6%" height="153.6%" x="-33.9%" y="-37.5%" filterUnits="objectBoundingBox" id="j"><feOffset result="shadowOffsetOuter1" dy="-3" dx="-2" in="SourceAlpha"/><feGaussianBlur result="shadowBlurOuter1" stdDeviation="2" in="shadowOffsetOuter1"/><feComposite in2="SourceAlpha" result="shadowBlurOuter1" operator="out" in="shadowBlurOuter1"/><feColorMatrix values="0 0 0 0 0 0 0 0 0 0 0 0 0 0 0 0 0 0 0.191887455 0" in="shadowBlurOuter1"/></filter><filter width="135.2%" height="134.9%" x="-22.3%" y="-24.4%" filterUnits="objectBoundingBox" id="a"><feOffset result="shadowOffsetOuter1" dy="-3" dx="-2" in="SourceAlpha"/><feGaussianBlur result="shadowBlurOuter1" stdDeviation="2" in="shadowOffsetOuter1"/><feComposite in2="SourceAlpha" result="shadowBlurOuter1" operator="out" in="shadowBlurOuter1"/><feColorMatrix values="0 0 0 0 0 0 0 0 0 0 0 0 0 0 0 0 0 0 0.191887455 0" in="shadowBlurOuter1"/></filter><filter width="175%" height="175%" x="-47.5%" y="-52.5%" filterUnits="objectBoundingBox" id="i"><feOffset result="shadowOffsetOuter1" dy="-3" dx="-2" in="SourceAlpha"/><feGaussianBlur result="shadowBlurOuter1" stdDeviation="2" in="shadowOffsetOuter1"/><feComposite in2="SourceAlpha" result="shadowBlurOuter1" operator="out" in="shadowBlurOuter1"/><feColorMatrix values="0 0 0 0 0 0 0 0 0 0 0 0 0 0 0 0 0 0 0 0" in="shadowBlurOuter1"/></filter><filter width="153.6%" height="153.6%" x="-33.9%" y="-37.5%" filterUnits="objectBoundingBox" id="h"><feOffset result="shadowOffsetOuter1" dy="-3" dx="-2" in="SourceAlpha"/><feGaussianBlur result="shadowBlurOuter1" stdDeviation="2" in="shadowOffsetOuter1"/><feComposite in2="SourceAlpha" result="shadowBlurOuter1" operator="out" in="shadowBlurOuter1"/><feColorMatrix values="0 0 0 0 0 0 0 0 0 0 0 0 0 0 0 0 0 0 0.191887455 0" in="shadowBlurOuter1"/></filter><filter width="171.3%" height="173.7%" x="-45.1%" y="-51.6%" filterUnits="objectBoundingBox" id="g"><feOffset result="shadowOffsetOuter1" dy="-3" dx="-2" in="SourceAlpha"/><feGaussianBlur result="shadowBlurOuter1" stdDeviation="2" in="shadowOffsetOuter1"/><feComposite in2="SourceAlpha" result="shadowBlurOuter1" operator="out" in="shadowBlurOuter1"/><feColorMatrix values="0 0 0 0 0 0 0 0 0 0 0 0 0 0 0 0 0 0 0 0" in="shadowBlurOuter1"/></filter><filter width="150.5%" height="151.4%" x="-32%" y="-36%" filterUnits="objectBoundingBox" id="f"><feOffset result="shadowOffsetOuter1" dy="-3" dx="-2" in="SourceAlpha"/><feGaussianBlur result="shadowBlurOuter1" stdDeviation="2" in="shadowOffsetOuter1"/><feComposite in2="SourceAlpha" result="shadowBlurOuter1" operator="out" in="shadowBlurOuter1"/><feColorMatrix values="0 0 0 0 0 0 0 0 0 0 0 0 0 0 0 0 0 0 0.191887455 0" in="shadowBlurOuter1"/></filter><filter width="178.5%" height="180%" x="-49.7%" y="-56%" filterUnits="objectBoundingBox" id="e"><feOffset result="shadowOffsetOuter1" dy="-3" dx="-2" in="SourceAlpha"/><feGaussianBlur result="shadowBlurOuter1" stdDeviation="2" in="shadowOffsetOuter1"/><feComposite in2="SourceAlpha" result="shadowBlurOuter1" operator="out" in="shadowBlurOuter1"/><feColorMatrix values="0 0 0 0 0 0 0 0 0 0 0 0 0 0 0 0 0 0 0 0" in="shadowBlurOuter1"/></filter><g opacity=".756"><path d="M768.1 64l42.5 43H768" filter="url(#a)" transform="rotate(180 772.3 55.5)"/><path fill="#FFF" fill-opacity=".107" d="M776.5 47L734 4h42.6"/></g><path fill="#E15216" d="M591.3 32.1L650.4 92h-59.1"/><path d="M625.3 92.1l59.1 59.9h-59.1" filter="url(#b)" transform="rotate(180 637.825 92.033)"/><path fill="#FFF" fill-opacity=".107" d="M650.35 91.966l-59.1-59.9h59.1"/><path opacity=".266" fill="#FFF" fill-opacity=".707" enable-background="new" d="M591.5 32.4l59.4.1-29.6 29.8"/><path d="M138 64.5l59.1 60H138" filter="url(#c)" transform="rotate(180 150.533 64.5)"/><path fill="#FFF" fill-opacity=".09" d="M163.066 64.5l-59.1-60h59.1"/><path fill="#1B3051" d="M163.1 4.5l59 60h-59"/><path opacity=".242" fill="#FFF" fill-opacity=".707" enable-background="new" d="M734 4.4l42.5.1-21.2 21.2"/><path fill="#1B3051" d="M734.1 4.4l42.3 42.9h-42.3"/><path fill="#1B3051" d="M776.2 47l20 20h-20"/><path d="M197.4 124.4l27 26.5h-27" filter="url(#d)" transform="rotate(180 193.907 107.683)"/><path fill="#FFF" fill-opacity=".253" d="M190.414 90.966l-27-26.5h27"/><g opacity=".313"><path d="M193.5 51.8l19.2 18.7h-19.2" filter="url(#e)" transform="rotate(-45 193.913 94.39)"/><path fill="#FFF" fill-opacity=".53" d="M163.505 64.566l26.8-.353-13.577 13.576"/></g><path opacity=".16" fill="#FFF" enable-background="new" d="M104.1 4.7l59.4.1-29.6 29.8"/><path d="M489 91.8l29.7 29.2H489" filter="url(#f)" transform="rotate(180 486.862 76.365)"/><path fill="#FFF" fill-opacity=".073" d="M484.724 60.93l-29.7-29.2h29.7"/><g opacity=".359"><path d="M485.5 18.4l21.1 20.3h-21.1" filter="url(#g)" transform="rotate(-45 486.862 61.764)"/><path fill="#FFF" fill-opacity=".53" d="M455.236 32.064l29.274-.566-14.92 14.92"/></g><path fill="#1B3051" d="M341 4l29 29h-29"/><path d="M18 45l28 28H18" filter="url(#h)" transform="rotate(180 193.5 38.5)"/><path fill="#FFF" fill-opacity=".276" d="M369 32L341 4h28"/><g opacity=".488"><path d="M14.2-28.2l20 20h-20" filter="url(#i)" transform="rotate(-45 216.435 -406.437)"/><path fill="#FFF" fill-opacity=".43" d="M340.887 4.02h28.284l-14.14 14.14"/></g><path d="M46 74l28 28H46" filter="url(#j)" transform="rotate(180 221.5 67.5)"/><path fill="#FFF" fill-opacity=".073" d="M397 61l-28-28h28"/><g opacity=".548"><path d="M42.2.8l19 20h-19" filter="url(#k)" transform="rotate(-45 243.935 -377.437)"/><path fill="#FFF" fill-opacity=".43" d="M368.74 32.665l27.578.707-13.435 13.435"/></g><path d="M519.3 123.2l30.3 29.8h-30.3" filter="url(#l)" transform="rotate(180 517.48 108.09)"/><path fill="#FFF" fill-opacity=".073" d="M515.66 92.98l-30.3-29.8h30.3"/><g opacity=".453"><path d="M516 49.3l21.4 21.1H516" filter="url(#m)" transform="rotate(-45 517.492 93.077)"/><path fill="#FFF" fill-opacity=".43" d="M485.482 63.177l30.052-.212-15.132 15.132"/></g><path d="M197.9 64.5l59.1 60h-59.1" filter="url(#n)" transform="rotate(180 210.467 64.5)"/><path fill="#FFF" fill-opacity=".107" d="M223.034 64.5l-59.1-60h59.1"/><path opacity=".266" fill="#FFF" fill-opacity=".707" enable-background="new" d="M163.1 4.9l59.5.1-29.7 29.8"/><path d="M964.1 87.1l46 46.9h-46" filter="url(#o)" transform="rotate(180 970.07 80.547)"/><path fill="#FFF" fill-opacity=".107" d="M976.04 73.994l-46-46.9h46"/><path opacity=".137" fill="#FFF" fill-opacity=".707" enable-background="new" d="M929.2 27.2l47.1.1-23.5 23.6"/></svg>