<svg xmlns="http://www.w3.org/2000/svg" viewBox="352 376.9 1300 89" enable-background="new 352 376.9 1300 89"><filter width="155.5%" height="156.6%" id="d" filterUnits="objectBoundingBox" y="-39.6%" x="-35.2%"><feOffset result="shadowOffsetOuter1" in="SourceAlpha" dx="-2" dy="-3"/><feGaussianBlur stdDeviation="2" result="shadowBlurOuter1" in="shadowOffsetOuter1"/><feComposite result="shadowBlurOuter1" in="shadowBlurOuter1" operator="out" in2="SourceAlpha"/><feColorMatrix in="shadowBlurOuter1" values="0 0 0 0 0 0 0 0 0 0 0 0 0 0 0 0 0 0 0.191887455 0"/></filter><filter width="125.4%" height="125%" id="c" filterUnits="objectBoundingBox" y="-17.5%" x="-16.1%"><feOffset result="shadowOffsetOuter1" in="SourceAlpha" dx="-2" dy="-3"/><feGaussianBlur stdDeviation="2" result="shadowBlurOuter1" in="shadowOffsetOuter1"/><feComposite result="shadowBlurOuter1" in="shadowBlurOuter1" operator="out" in2="SourceAlpha"/><feColorMatrix in="shadowBlurOuter1" values="0 0 0 0 0 0 0 0 0 0 0 0 0 0 0 0 0 0 0.191887455 0"/></filter><filter width="125.4%" height="125%" id="b" filterUnits="objectBoundingBox" y="-17.5%" x="-16.1%"><feOffset result="shadowOffsetOuter1" in="SourceAlpha" dx="-2" dy="-3"/><feGaussianBlur stdDeviation="2" result="shadowBlurOuter1" in="shadowOffsetOuter1"/><feComposite result="shadowBlurOuter1" in="shadowBlurOuter1" operator="out" in2="SourceAlpha"/><feColorMatrix in="shadowBlurOuter1" values="0 0 0 0 0 0 0 0 0 0 0 0 0 0 0 0 0 0 0.191887455 0"/></filter><filter width="132.6%" height="132%" id="o" filterUnits="objectBoundingBox" y="-22.4%" x="-20.6%"><feOffset result="shadowOffsetOuter1" in="SourceAlpha" dx="-2" dy="-3"/><feGaussianBlur stdDeviation="2" result="shadowBlurOuter1" in="shadowOffsetOuter1"/><feComposite result="shadowBlurOuter1" in="shadowBlurOuter1" operator="out" in2="SourceAlpha"/><feColorMatrix in="shadowBlurOuter1" values="0 0 0 0 0 0 0 0 0 0 0 0 0 0 0 0 0 0 0.191887455 0"/></filter><filter width="125.4%" height="125%" id="n" filterUnits="objectBoundingBox" y="-17.5%" x="-16.1%"><feOffset result="shadowOffsetOuter1" in="SourceAlpha" dx="-2" dy="-3"/><feGaussianBlur stdDeviation="2" result="shadowBlurOuter1" in="shadowOffsetOuter1"/><feComposite result="shadowBlurOuter1" in="shadowBlurOuter1" operator="out" in2="SourceAlpha"/><feColorMatrix in="shadowBlurOuter1" values="0 0 0 0 0 0 0 0 0 0 0 0 0 0 0 0 0 0 0.191887455 0"/></filter><filter width="170%" height="171.1%" id="m" filterUnits="objectBoundingBox" y="-49.8%" x="-44.3%"><feOffset result="shadowOffsetOuter1" in="SourceAlpha" dx="-2" dy="-3"/><feGaussianBlur stdDeviation="2" result="shadowBlurOuter1" in="shadowOffsetOuter1"/><feComposite result="shadowBlurOuter1" in="shadowBlurOuter1" operator="out" in2="SourceAlpha"/><feColorMatrix in="shadowBlurOuter1" values="0 0 0 0 0 0 0 0 0 0 0 0 0 0 0 0 0 0 0 0"/></filter><filter width="149.5%" height="150.3%" id="l" filterUnits="objectBoundingBox" y="-35.2%" x="-31.4%"><feOffset result="shadowOffsetOuter1" in="SourceAlpha" dx="-2" dy="-3"/><feGaussianBlur stdDeviation="2" result="shadowBlurOuter1" in="shadowOffsetOuter1"/><feComposite result="shadowBlurOuter1" in="shadowBlurOuter1" operator="out" in2="SourceAlpha"/><feColorMatrix in="shadowBlurOuter1" values="0 0 0 0 0 0 0 0 0 0 0 0 0 0 0 0 0 0 0.191887455 0"/></filter><filter width="178.9%" height="175%" id="k" filterUnits="objectBoundingBox" y="-52.5%" x="-50%"><feOffset result="shadowOffsetOuter1" in="SourceAlpha" dx="-2" dy="-3"/><feGaussianBlur stdDeviation="2" result="shadowBlurOuter1" in="shadowOffsetOuter1"/><feComposite result="shadowBlurOuter1" in="shadowBlurOuter1" operator="out" in2="SourceAlpha"/><feColorMatrix in="shadowBlurOuter1" values="0 0 0 0 0 0 0 0 0 0 0 0 0 0 0 0 0 0 0 0"/></filter><filter width="153.6%" height="153.6%" id="j" filterUnits="objectBoundingBox" y="-37.5%" x="-33.9%"><feOffset result="shadowOffsetOuter1" in="SourceAlpha" dx="-2" dy="-3"/><feGaussianBlur stdDeviation="2" result="shadowBlurOuter1" in="shadowOffsetOuter1"/><feComposite result="shadowBlurOuter1" in="shadowBlurOuter1" operator="out" in2="SourceAlpha"/><feColorMatrix in="shadowBlurOuter1" values="0 0 0 0 0 0 0 0 0 0 0 0 0 0 0 0 0 0 0.191887455 0"/></filter><filter width="135.2%" height="134.9%" id="a" filterUnits="objectBoundingBox" y="-24.4%" x="-22.3%"><feOffset result="shadowOffsetOuter1" in="SourceAlpha" dx="-2" dy="-3"/><feGaussianBlur stdDeviation="2" result="shadowBlurOuter1" in="shadowOffsetOuter1"/><feComposite result="shadowBlurOuter1" in="shadowBlurOuter1" operator="out" in2="SourceAlpha"/><feColorMatrix in="shadowBlurOuter1" values="0 0 0 0 0 0 0 0 0 0 0 0 0 0 0 0 0 0 0.191887455 0"/></filter><filter width="175%" height="175%" id="i" filterUnits="objectBoundingBox" y="-52.5%" x="-47.5%"><feOffset result="shadowOffsetOuter1" in="SourceAlpha" dx="-2" dy="-3"/><feGaussianBlur stdDeviation="2" result="shadowBlurOuter1" in="shadowOffsetOuter1"/><feComposite result="shadowBlurOuter1" in="shadowBlurOuter1" operator="out" in2="SourceAlpha"/><feColorMatrix in="shadowBlurOuter1" values="0 0 0 0 0 0 0 0 0 0 0 0 0 0 0 0 0 0 0 0"/></filter><filter width="153.6%" height="153.6%" id="h" filterUnits="objectBoundingBox" y="-37.5%" x="-33.9%"><feOffset result="shadowOffsetOuter1" in="SourceAlpha" dx="-2" dy="-3"/><feGaussianBlur stdDeviation="2" result="shadowBlurOuter1" in="shadowOffsetOuter1"/><feComposite result="shadowBlurOuter1" in="shadowBlurOuter1" operator="out" in2="SourceAlpha"/><feColorMatrix in="shadowBlurOuter1" values="0 0 0 0 0 0 0 0 0 0 0 0 0 0 0 0 0 0 0.191887455 0"/></filter><filter width="171.3%" height="173.7%" id="g" filterUnits="objectBoundingBox" y="-51.6%" x="-45.1%"><feOffset result="shadowOffsetOuter1" in="SourceAlpha" dx="-2" dy="-3"/><feGaussianBlur stdDeviation="2" result="shadowBlurOuter1" in="shadowOffsetOuter1"/><feComposite result="shadowBlurOuter1" in="shadowBlurOuter1" operator="out" in2="SourceAlpha"/><feColorMatrix in="shadowBlurOuter1" values="0 0 0 0 0 0 0 0 0 0 0 0 0 0 0 0 0 0 0 0"/></filter><filter width="150.5%" height="151.4%" id="f" filterUnits="objectBoundingBox" y="-36%" x="-32%"><feOffset result="shadowOffsetOuter1" in="SourceAlpha" dx="-2" dy="-3"/><feGaussianBlur stdDeviation="2" result="shadowBlurOuter1" in="shadowOffsetOuter1"/><feComposite result="shadowBlurOuter1" in="shadowBlurOuter1" operator="out" in2="SourceAlpha"/><feColorMatrix in="shadowBlurOuter1" values="0 0 0 0 0 0 0 0 0 0 0 0 0 0 0 0 0 0 0.191887455 0"/></filter><filter width="178.5%" height="180%" id="e" filterUnits="objectBoundingBox" y="-56%" x="-49.7%"><feOffset result="shadowOffsetOuter1" in="SourceAlpha" dx="-2" dy="-3"/><feGaussianBlur stdDeviation="2" result="shadowBlurOuter1" in="shadowOffsetOuter1"/><feComposite result="shadowBlurOuter1" in="shadowBlurOuter1" operator="out" in2="SourceAlpha"/><feColorMatrix in="shadowBlurOuter1" values="0 0 0 0 0 0 0 0 0 0 0 0 0 0 0 0 0 0 0 0"/></filter><g opacity=".756"><path d="M416.6-308.9l42.5 43h-42.6" filter="url(#a)" transform="rotate(180 772.3 55.5)"/><path fill="#FFF" fill-opacity=".107" d="M1128 419.9l-42.5-43h42.6"/></g><path d="M273.8-280.8l59.1 59.9h-59.1" filter="url(#b)" transform="rotate(180 637.825 92.033)"/><path fill="#FFF" fill-opacity=".107" d="M1001.85 464.866l-59.1-59.9h59.1"/><path opacity=".266" fill="#FFF" fill-opacity=".707" enable-background="new" d="M943 405.3l59.4.1-29.6 29.8"/><path d="M-213.5-308.4l59.1 60h-59.1" filter="url(#c)" transform="rotate(180 150.533 64.5)"/><path fill="#FFF" fill-opacity=".09" d="M514.566 437.4l-59.1-60h59.1"/><path opacity=".242" fill="#FFF" fill-opacity=".707" enable-background="new" d="M1085.5 377.3h42.5l-21.2 21.3"/><path fill="#e4002b" d="M1085.6 377.3l42.3 42.8h-42.3"/><path fill="#e4002b" d="M1127.7 419.9l20 20h-20"/><path d="M-154.1-248.5l27 26.5h-27" filter="url(#d)" transform="rotate(180 193.907 107.683)"/><path fill="#FFF" fill-opacity=".253" d="M541.914 463.866l-27-26.5h27"/><g opacity=".313"><path d="M178.4 564l19.1 18.8h-19.1" filter="url(#e)" transform="rotate(-45 193.913 94.39)"/><path fill="#FFF" fill-opacity=".53" d="M515.008 437.424l26.8-.212-13.506 13.505"/></g><path opacity=".16" fill="#FFF" enable-background="new" d="M455.6 377.6l59.4.1-29.6 29.8"/><path d="M137.5-281.1l29.7 29.2h-29.7" filter="url(#f)" transform="rotate(180 486.862 76.365)"/><path fill="#FFF" fill-opacity=".073" d="M836.224 433.83l-29.7-29.2h29.7"/><g opacity=".359"><path d="M470.4 530.6l21 20.3h-21" filter="url(#g)" transform="rotate(-45 486.862 61.764)"/><path fill="#FFF" fill-opacity=".53" d="M806.74 404.922l29.202-.495-14.85 14.85"/></g><path fill="#E4002B" d="M-333.5-327.9l28 28h-28" filter="url(#h)" transform="rotate(180 193.5 38.5)"/><path fill="#FFF" fill-opacity=".276" d="M720.5 404.9l-28-28h28"/><g opacity=".488"><path d="M-.9 484l20 20h-20" filter="url(#i)" transform="rotate(-45 216.435 -406.437)"/><path fill="#FFF" fill-opacity=".43" d="M692.39 376.876h28.284l-14.142 14.142"/></g><path d="M-305.5-298.9l28 28h-28" filter="url(#j)" transform="rotate(180 221.5 67.5)"/><path fill="#FFF" fill-opacity=".073" d="M748.5 433.9l-28-28h28"/><g opacity=".548"><path d="M27.1 513l19 20h-19" filter="url(#k)" transform="rotate(-45 243.935 -377.437)"/><path fill="#FFF" fill-opacity=".43" d="M720.244 405.523l27.577.707-13.434 13.435"/></g><path fill="#e4002b" d="M692.5 376.9l29 29h-29"/><path d="M167.8-249.7l30.3 29.8h-30.3" filter="url(#l)" transform="rotate(180 517.48 108.09)"/><path fill="#FFF" fill-opacity=".073" d="M867.16 465.88l-30.3-29.8h30.3"/><g opacity=".453"><path d="M500.8 561.5l21.5 21.1h-21.5" filter="url(#m)" transform="rotate(-45 517.492 93.077)"/><path fill="#FFF" fill-opacity=".43" d="M836.914 436.105l30.123-.283-15.203 15.203"/></g><path d="M-153.6-308.4l59.1 60h-59.1" filter="url(#n)" transform="rotate(180 210.467 64.5)"/><path fill="#FFF" fill-opacity=".107" d="M574.534 437.4l-59.1-60h59.1"/><path opacity=".266" fill="#FFF" fill-opacity=".707" enable-background="new" d="M514.6 377.8l59.5.1-29.7 29.8"/><path d="M612.6-285.8l46 46.9h-46" filter="url(#o)" transform="rotate(180 970.07 80.547)"/><path fill="#FFF" fill-opacity=".107" d="M1327.54 446.894l-46-46.9h46"/><path opacity=".137" fill="#FFF" fill-opacity=".707" enable-background="new" d="M1280.7 400.1l47.1.1-23.5 23.6"/><path fill="#e4002b" d="M942.8 405l59.1 59.9h-59.1m-428.2-87.5l59 60h-59"/></svg>